#N canvas 827 239 734 565 12;
#X obj 492 48 mtof;
#X obj 515 172 *~;
#X obj 711 475 dac~;
#X msg 594 130 1 5 \, 0 150 5;
#X obj 594 165 vline~;
#X obj 340 54 tgl 25 0 empty empty empty 0 -10 0 10 #e4e4e4 #4d4d4d #373737 0 1;
#X obj 340 136 f;
#X obj 340 178 + 1;
#X obj 340 213 % 8;
#X msg 216 306 60;
#X msg 381 300 72;
#X msg 466 300 75;
#X obj 581 76 osc~ 700;
#X obj 703 40 tgl 25 0 empty empty empty 0 -10 0 10 #e4e4e4 #4d4d4d #373737 0 1;
#X obj 703 122 f;
#X obj 703 164 + 1;
#X obj 703 199 % 8;
#X msg 872 286 79;
#X obj 277 254 sel 0 2 4 6;
#X obj 640 240 sel 1 3 5 7;
#X msg 671 286 62;
#X msg 308 300 63;
#X msg 733 286 67;
#X msg 796 286 74;
#X obj 835 30 mtof;
#X obj 892 199 *~;
#X obj 858 244 dac~;
#X obj 835 131 phasor~ 400;
#X msg 954 109 1 5 \, 0 150 5;
#X obj 954 144 vline~;
#X obj 492 116 phasor~ 700;
#X obj 340 98 metro 500;
#X obj 703 84 metro 250;
#X obj 368 992 mtof;
#X obj 391 1116 *~;
#X obj 600 1301 dac~;
#X msg 470 1074 1 5 \, 0 150 5;
#X obj 470 1109 vline~;
#X obj 216 998 tgl 25 0 empty empty empty 0 -10 0 10 #e4e4e4 #4d4d4d #373737 0 1;
#X obj 216 1080 f;
#X obj 216 1122 + 1;
#X obj 216 1157 % 8;
#X msg 307 1257 72;
#X msg 425 1257 75;
#X obj 457 1020 osc~ 700;
#X msg 219 1257 63;
#X obj 153 1198 sel 0 1 2 3 4 5 6 7;
#X msg 145 1251 60;
#X msg 476 1257 79;
#X msg 182 1257 62;
#X msg 260 1257 67;
#X msg 360 1257 74;
#X obj 216 1042 metro 150;
#X obj 320 1080 phasor~ 800;
#X obj 600 1222 *~ 0.3;
#X obj 600 1164 rev3~ 100 80 3000;
#X obj 594 624 writesf~ 2;
#X msg 424 484 start;
#X msg 379 598 stop;
#X obj 379 541 delay 60000;
#X obj 354 450 bng 25 250 50 0 empty empty empty 0 -10 0 10 #e4e4e4 #4d4d4d #373737;
#X msg 417 403 open gameboy.mp3;
#X connect 0 0 12 0;
#X connect 0 0 30 0;
#X connect 1 0 2 0;
#X connect 1 0 2 1;
#X connect 1 0 56 0;
#X connect 1 0 56 1;
#X connect 3 0 4 0;
#X connect 4 0 1 1;
#X connect 5 0 31 0;
#X connect 6 0 7 0;
#X connect 7 0 6 1;
#X connect 7 0 8 0;
#X connect 8 0 18 0;
#X connect 9 0 0 0;
#X connect 10 0 0 0;
#X connect 11 0 0 0;
#X connect 13 0 32 0;
#X connect 14 0 15 0;
#X connect 15 0 16 0;
#X connect 15 0 14 1;
#X connect 16 0 19 0;
#X connect 17 0 24 0;
#X connect 18 0 9 0;
#X connect 18 1 21 0;
#X connect 18 2 10 0;
#X connect 18 3 11 0;
#X connect 19 0 20 0;
#X connect 19 1 22 0;
#X connect 19 2 23 0;
#X connect 19 3 17 0;
#X connect 20 0 24 0;
#X connect 21 0 0 0;
#X connect 22 0 24 0;
#X connect 23 0 24 0;
#X connect 24 0 27 0;
#X connect 25 0 26 0;
#X connect 25 0 26 1;
#X connect 25 0 56 0;
#X connect 25 0 56 1;
#X connect 27 0 25 0;
#X connect 28 0 29 0;
#X connect 29 0 25 1;
#X connect 30 0 1 0;
#X connect 31 0 6 0;
#X connect 31 0 3 0;
#X connect 32 0 14 0;
#X connect 32 0 28 0;
#X connect 33 0 44 0;
#X connect 33 0 53 0;
#X connect 34 0 55 0;
#X connect 36 0 37 0;
#X connect 37 0 34 1;
#X connect 38 0 52 0;
#X connect 39 0 40 0;
#X connect 40 0 39 1;
#X connect 40 0 41 0;
#X connect 41 0 46 0;
#X connect 42 0 33 0;
#X connect 43 0 33 0;
#X connect 45 0 33 0;
#X connect 46 0 47 0;
#X connect 46 1 49 0;
#X connect 46 2 45 0;
#X connect 46 3 50 0;
#X connect 46 4 42 0;
#X connect 46 5 51 0;
#X connect 46 6 43 0;
#X connect 46 7 48 0;
#X connect 47 0 33 0;
#X connect 48 0 33 0;
#X connect 49 0 33 0;
#X connect 50 0 33 0;
#X connect 51 0 33 0;
#X connect 52 0 39 0;
#X connect 52 0 36 0;
#X connect 53 0 34 0;
#X connect 54 0 35 0;
#X connect 54 0 35 1;
#X connect 55 0 54 0;
#X connect 57 0 56 0;
#X connect 58 0 56 0;
#X connect 59 0 58 0;
#X connect 60 0 57 0;
#X connect 60 0 59 0;
#X connect 61 0 56 0;
