#N canvas 827 239 734 565 12;
#X obj 53 46 tgl 25 0 empty empty empty 0 -10 0 10 #e4e4e4 #4d4d4d #373737 0 1;
#X obj 53 112 s beat;
#X obj 44 162 r beat;
#X obj 44 188 f;
#X obj 44 220 + 1;
#X obj 44 278 t f f;
#X obj 55 306 s step;
#X obj 181 46 r step;
#X obj 181 86 select 0 4 8 12;
#X obj 377 46 r step;
#X obj 508 36 r step;
#X obj 377 86 select 0 8;
#X obj 508 76 select 2 6 10 14;
#X obj 678 36 r step;
#X obj 678 76 select 4 12;
#X obj 808 46 r step;
#X obj 808 86 select 1 5 9 13;
#X obj 1028 81 r step;
#X obj 1028 121 select 3 11;
#X obj 377 162 line~;
#X obj 294 162 osc~ 60;
#X obj 358 242 *~ 0.8;
#X obj 358 200 *~;
#X obj 261 278 s~ kick;
#X obj 377 314 dac~;
#X obj 539 169 line~;
#X obj 520 207 *~;
#X msg 539 125 1 \, 0 80;
#X obj 520 249 hip~ 8000;
#X obj 520 285 *~ 0.8;
#X obj 444 314 s~ hat;
#X obj 544 331 dac~;
#X obj 456 169 noise~;
#X obj 712 169 line~;
#X obj 693 207 *~;
#X obj 717 331 dac~;
#X obj 629 169 noise~;
#X msg 712 125 1 \, 0 150;
#X obj 693 249 hip~ 2000;
#X obj 693 285 *~ 0.4;
#X obj 181 153 + 48;
#X obj 181 188 mtof;
#X obj 181 259 *~ 0.4;
#X obj 166 306 lop~ 200;
#X obj 117 340 s~ bass;
#X obj 55 370 dac~;
#X msg 377 118 1 \, 0 200;
#X obj 53 86 metro 714;
#X obj 808 125 random 5;
#X obj 808 162 + 60;
#X obj 808 189 mtof;
#X obj 808 223 t f b;
#X obj 880 285 line~;
#X obj 808 285 osc~;
#X msg 870 249 1 \, 0 200;
#X obj 839 331 *~;
#X obj 839 374 *~ 0.4;
#X obj 873 419 s~ lead;
#X obj 821 426 dac~;
#X obj 1028 197 line~;
#X obj 936 183 noise~;
#X obj 978 234 *~;
#X obj 1097 292 s~ guitar;
#X obj 1037 363 dac~;
#X obj 984 403 delwrite~ gbuf 1000;
#X obj 1014 522 +~;
#X obj 1014 559 *~ 0.15;
#X obj 1014 585 lop~ 800;
#X obj 960 642 s~ pad;
#X obj 1038 642 dac~;
#X obj 1014 292 +~;
#X msg 1028 160 1 \, 0 100;
#X obj 1097 213 lop~ 300;
#X obj 1097 183 delread~ gbuf 12;
#X obj 1097 242 *~ 0.3;
#X obj 1500 47 r~ kick;
#X obj 1565 47 r~ snare;
#X obj 1630 47 r~ hat;
#X obj 1695 47 r~ bass;
#X obj 1760 47 r~ lead;
#X obj 1828 47 r~ pad;
#X obj 1901 73 *~ 0.3;
#X obj 1901 47 r~ guitar;
#X obj 1544 134 +~;
#X obj 1577 178 +~;
#X obj 1610 222 +~;
#X obj 1643 266 +~;
#X obj 1676 310 +~;
#X obj 1585 395 s~ mix;
#X obj 1356 310 r~ mix;
#X obj 1356 336 rev3~ 100 80 3000;
#X obj 1316 389 s~ reverb;
#X obj 1431 395 dac~;
#X obj 618 340 s~ snare;
#X obj 1702 408 dac~;
#X obj 1500 85 *~ 1;
#X obj 1630 73 *~ 1;
#X obj 1695 73 *~ 1;
#X obj 1760 73 *~ 1;
#X obj 1828 73 *~ 1;
#X obj 1565 73 *~ 1;
#X obj 226 415 +~;
#X obj 278 449 +~;
#X obj 330 483 +~;
#X obj 382 517 +~;
#X obj 434 551 +~;
#X obj 654 712 dac~;
#X obj 605 610 rev3~ 100 80 3000;
#X obj 532 570 +~;
#X obj 44 246 % 16;
#X obj 969 471 osc~ 220;
#X obj 1053 471 osc~ 221;
#X obj 181 125 random 3;
#X obj 181 220 osc~ 20;
#X obj 382 799 writesf~ 2;
#X msg 207 655 start;
#X msg 162 769 stop;
#X obj 162 712 delay 60000;
#X obj 137 621 bng 25 250 50 0 empty empty empty 0 -10 0 10 #e4e4e4 #4d4d4d #373737;
#X msg 259 610 open herta_space_station.mp3;
#X connect 0 0 47 0;
#X connect 2 0 3 0;
#X connect 3 0 4 0;
#X connect 4 0 109 0;
#X connect 5 0 3 1;
#X connect 5 1 6 0;
#X connect 7 0 8 0;
#X connect 8 0 112 0;
#X connect 9 0 11 0;
#X connect 10 0 12 0;
#X connect 11 0 46 0;
#X connect 12 0 27 0;
#X connect 13 0 14 0;
#X connect 14 0 37 0;
#X connect 15 0 16 0;
#X connect 16 0 48 0;
#X connect 17 0 18 0;
#X connect 18 0 71 0;
#X connect 19 0 22 1;
#X connect 20 0 22 0;
#X connect 21 0 101 1;
#X connect 21 0 23 0;
#X connect 22 0 21 0;
#X connect 25 0 26 1;
#X connect 26 0 28 0;
#X connect 27 0 25 0;
#X connect 28 0 29 0;
#X connect 29 0 102 1;
#X connect 29 0 30 0;
#X connect 32 0 26 0;
#X connect 33 0 34 1;
#X connect 34 0 38 0;
#X connect 36 0 34 0;
#X connect 37 0 33 0;
#X connect 38 0 39 0;
#X connect 39 0 93 0;
#X connect 39 0 103 1;
#X connect 40 0 41 0;
#X connect 41 0 113 0;
#X connect 42 0 43 0;
#X connect 43 0 44 0;
#X connect 43 0 101 0;
#X connect 46 0 19 0;
#X connect 47 0 1 0;
#X connect 48 0 49 0;
#X connect 49 0 50 0;
#X connect 50 0 51 0;
#X connect 51 0 53 0;
#X connect 51 1 54 0;
#X connect 52 0 55 1;
#X connect 53 0 55 0;
#X connect 54 0 52 0;
#X connect 55 0 56 0;
#X connect 56 0 104 1;
#X connect 56 0 57 0;
#X connect 59 0 61 1;
#X connect 60 0 61 0;
#X connect 61 0 70 0;
#X connect 65 0 66 0;
#X connect 66 0 67 0;
#X connect 67 0 68 0;
#X connect 67 0 105 0;
#X connect 70 0 64 0;
#X connect 70 0 108 1;
#X connect 71 0 59 0;
#X connect 72 0 74 0;
#X connect 73 0 72 0;
#X connect 74 0 62 0;
#X connect 74 0 70 1;
#X connect 75 0 95 0;
#X connect 76 0 100 0;
#X connect 77 0 96 0;
#X connect 78 0 97 0;
#X connect 79 0 98 0;
#X connect 80 0 99 0;
#X connect 82 0 81 0;
#X connect 83 0 84 0;
#X connect 84 0 85 0;
#X connect 85 0 86 1;
#X connect 86 0 87 0;
#X connect 87 0 88 0;
#X connect 89 0 90 0;
#X connect 90 0 91 0;
#X connect 95 0 83 0;
#X connect 96 0 84 1;
#X connect 97 0 85 1;
#X connect 98 0 86 1;
#X connect 99 0 87 1;
#X connect 100 0 83 1;
#X connect 101 0 102 0;
#X connect 102 0 103 0;
#X connect 103 0 104 0;
#X connect 104 0 105 1;
#X connect 105 0 108 1;
#X connect 107 0 114 0;
#X connect 107 0 106 0;
#X connect 107 0 106 1;
#X connect 107 0 114 1;
#X connect 108 0 107 0;
#X connect 109 0 5 0;
#X connect 110 0 65 0;
#X connect 111 0 65 1;
#X connect 112 0 40 0;
#X connect 113 0 42 0;
#X connect 115 0 114 0;
#X connect 116 0 114 0;
#X connect 117 0 116 0;
#X connect 118 0 115 0;
#X connect 118 0 117 0;
#X connect 119 0 114 0;
