#N canvas 827 239 734 565 12;
#X obj 174 32 loadbang;
#X obj 92 83 tgl 25 0 empty empty empty 0 -10 0 10 #e4e4e4 #4d4d4d #373737 0 1;
#X obj 92 139 metro 125;
#X obj 92 189 f;
#X obj 92 228 + 1;
#X obj 92 273 % 16;
#X obj 92 323 select 0 4 8 12;
#X obj 100 419 vline~;
#X obj 100 469 *~;
#X obj 16 427 osc~ 60;
#X obj 303 26 bang;
#X obj 303 159 vline~;
#X obj 303 260 *~;
#X obj 227 159 noise~;
#X obj 483 10 bang;
#X obj 483 173 vline~;
#X obj 474 295 *~;
#X obj 411 202 noise~;
#X obj 227 202 lop~ 2000;
#X obj 253 486 *~ 0.3;
#X obj 92 32 bang;
#X msg 100 371 1 0 \, 0 200;
#X msg 303 98 1 0 \, 0 150;
#X obj 303 55 select 4 12;
#X obj 483 55 select 2 6 10 14;
#X msg 483 112 1 0 \, 0 50;
#X obj 424 246 hip~ 5000;
#X obj 611 259 mtof;
#X obj 660 259 mtof;
#X obj 709 259 mtof;
#X obj 787 395 mtof;
#X obj 611 325 osc~;
#X obj 667 325 osc~;
#X obj 723 325 osc~;
#X obj 787 427 osc~;
#X obj 648 397 +~;
#X obj 702 451 +~;
#X obj 740 499 +~;
#X msg 924 132 1 0 \, 0 800;
#X obj 924 437 vline~;
#X obj 751 593 *~;
#X obj 751 619 lop~ 800;
#X obj 751 673 *~ 0.2;
#X obj 638 67 tgl 25 0 empty empty empty 0 -10 0 10 #e4e4e4 #4d4d4d #373737 0 1;
#X obj 638 16 bang;
#X obj 818 139 f;
#X obj 818 178 + 1;
#X obj 818 223 % 2;
#X obj 818 272 select 0 1;
#X msg 1190 174 67;
#X obj 1092 259 mtof;
#X obj 1141 259 mtof;
#X obj 1190 259 mtof;
#X obj 1268 395 mtof;
#X obj 1092 325 osc~;
#X obj 1148 325 osc~;
#X obj 1204 325 osc~;
#X obj 1268 427 osc~;
#X obj 1129 397 +~;
#X obj 1183 451 +~;
#X obj 1221 499 +~;
#X obj 1405 437 vline~;
#X obj 1232 593 *~;
#X obj 1119 67 tgl 25 0 empty empty empty 0 -10 0 10 #e4e4e4 #4d4d4d #373737 0 1;
#X obj 1119 16 bang;
#X msg 1268 339 70;
#X msg 1351 339 71;
#X obj 1299 139 f;
#X obj 1299 178 + 1;
#X obj 1299 223 % 2;
#X obj 1299 272 select 0 1;
#X msg 1092 174 60;
#X msg 1141 174 63;
#X obj 1232 619 lop~ 600;
#X obj 1232 673 *~ 0.15;
#X obj 1099 715 noise~;
#X obj 1099 741 lop~ 1000;
#X obj 712 85 metro 2000;
#X msg 611 174 40;
#X msg 660 174 43;
#X msg 709 174 45;
#X msg 787 339 60;
#X msg 870 339 61;
#X obj 1621 259 mtof;
#X obj 1670 259 mtof;
#X obj 1719 259 mtof;
#X obj 1797 395 mtof;
#X obj 1621 325 osc~;
#X obj 1677 325 osc~;
#X obj 1733 325 osc~;
#X obj 1797 427 osc~;
#X obj 1658 397 +~;
#X obj 1712 451 +~;
#X obj 1750 499 +~;
#X obj 1934 437 vline~;
#X obj 1761 593 *~;
#X obj 1648 67 tgl 25 0 empty empty empty 0 -10 0 10 #e4e4e4 #4d4d4d #373737 0 1;
#X obj 1648 16 bang;
#X obj 1828 139 f;
#X obj 1828 178 + 1;
#X obj 1828 223 % 2;
#X obj 1828 272 select 0 1;
#X obj 1761 619 lop~ 600;
#X obj 1761 673 *~ 0.15;
#X obj 1722 85 metro 1000;
#X msg 1934 132 1 0 \, 0 1000;
#X msg 1621 174 30;
#X msg 1670 174 33;
#X msg 1797 339 50;
#X msg 1880 339 51;
#X msg 1405 132 1 0 \, 0 800;
#X text 352 459 drums - A;
#X text 818 85 low hit - B;
#X text 1325 74 frequent high hit - C;
#X text 1797 32 very low hit - D;
#X text 755 15 asteroid - B + D +? A;
#X obj 52 1199 osc~ 0.2;
#X obj 52 1269 +~;
#X msg 298 1045 67;
#X obj 200 1130 mtof;
#X obj 249 1130 mtof;
#X obj 318 1136 mtof;
#X obj 376 1266 mtof;
#X obj 100 1376 osc~;
#X obj 156 1376 osc~;
#X obj 212 1376 osc~;
#X obj 298 1411 osc~;
#X obj 137 1448 +~;
#X obj 191 1502 +~;
#X obj 229 1550 +~;
#X obj 513 1308 vline~;
#X obj 340 1464 *~;
#X obj 340 1591 dac~;
#X obj 227 938 tgl 25 0 empty empty empty 0 -10 0 10 #e4e4e4 #4d4d4d #373737 0 1;
#X obj 227 887 bang;
#X msg 376 1210 70;
#X msg 459 1210 71;
#X obj 407 1010 f;
#X obj 407 1049 + 1;
#X obj 407 1094 % 2;
#X obj 407 1143 select 0 1;
#X msg 200 1045 60;
#X msg 249 1045 63;
#X obj 340 1490 lop~ 600;
#X obj 340 1544 *~ 0.15;
#X obj 301 956 metro 500;
#X msg 513 1003 1 0 \, 0 800;
#X text 433 945 frequent high hit - C;
#X obj 156 1210 osc~ 0.2;
#X obj 156 1280 +~;
#X obj 260 1221 osc~ 0.2;
#X obj 260 1247 *~ 3;
#X obj 260 1291 +~;
#X obj 328 1291 osc~ 0.2;
#X obj 328 1317 *~ 3;
#X obj 328 1361 +~;
#X obj 52 1225 *~ 1.5;
#X obj 156 1236 *~ 1.5;
#X obj 1715 750 +~;
#X obj 1416 731 +~;
#X obj 1089 944 +~;
#X obj 1177 861 +~;
#X obj 1106 800 *~ 0.015;
#X obj 1276 946 lop~ 1200;
#X obj 1287 1056 *~ 1.2;
#X obj 1450 1037 clip -0.7 0.7;
#X obj 1643 1102 free.rev~;
#X obj 1438 1145 dac~;
#X text 755 42 hyperspace - C + D;
#X msg 1719 174 37;
#X obj 1352 1262 writesf~ 2;
#X msg 1131 1166 start;
#X msg 1025 1164 stop;
#X obj 970 1031 bng 25 250 50 0 empty empty empty 0 -10 0 10 #e4e4e4 #4d4d4d #373737;
#X obj 1193 85 metro 500;
#X obj 1030 1239 delay 30000;
#X msg 1038 1056 open hyperspace.wav;
#X connect 1 0 2 0;
#X connect 2 0 3 0;
#X connect 3 0 4 0;
#X connect 4 0 5 0;
#X connect 5 0 3 1;
#X connect 5 0 6 0;
#X connect 5 0 23 0;
#X connect 5 0 24 0;
#X connect 6 0 21 0;
#X connect 7 0 8 1;
#X connect 8 0 19 0;
#X connect 9 0 8 0;
#X connect 10 0 23 0;
#X connect 11 0 12 1;
#X connect 12 0 19 0;
#X connect 13 0 18 0;
#X connect 14 0 24 0;
#X connect 15 0 16 1;
#X connect 16 0 19 0;
#X connect 17 0 26 0;
#X connect 18 0 12 0;
#X connect 20 0 1 0;
#X connect 21 0 7 0;
#X connect 22 0 11 0;
#X connect 23 0 22 0;
#X connect 24 0 25 0;
#X connect 25 0 15 0;
#X connect 26 0 16 0;
#X connect 27 0 31 0;
#X connect 28 0 32 0;
#X connect 29 0 33 0;
#X connect 30 0 34 0;
#X connect 31 0 35 0;
#X connect 32 0 35 1;
#X connect 33 0 36 1;
#X connect 34 0 37 1;
#X connect 35 0 36 0;
#X connect 36 0 37 0;
#X connect 37 0 40 0;
#X connect 38 0 39 0;
#X connect 39 0 40 1;
#X connect 40 0 41 0;
#X connect 41 0 42 0;
#X connect 43 0 77 0;
#X connect 44 0 43 0;
#X connect 45 0 46 0;
#X connect 46 0 47 0;
#X connect 47 0 45 1;
#X connect 47 0 48 0;
#X connect 48 0 81 0;
#X connect 48 1 82 0;
#X connect 49 0 52 0;
#X connect 50 0 54 0;
#X connect 51 0 55 0;
#X connect 52 0 56 0;
#X connect 53 0 57 0;
#X connect 54 0 58 0;
#X connect 55 0 58 1;
#X connect 56 0 59 1;
#X connect 57 0 60 1;
#X connect 58 0 59 0;
#X connect 59 0 60 0;
#X connect 60 0 62 0;
#X connect 61 0 62 1;
#X connect 62 0 73 0;
#X connect 63 0 174 0;
#X connect 64 0 63 0;
#X connect 65 0 53 0;
#X connect 66 0 53 0;
#X connect 67 0 68 0;
#X connect 68 0 69 0;
#X connect 69 0 67 1;
#X connect 69 0 70 0;
#X connect 70 0 65 0;
#X connect 70 1 66 0;
#X connect 71 0 50 0;
#X connect 72 0 51 0;
#X connect 73 0 74 0;
#X connect 74 0 159 0;
#X connect 75 0 76 0;
#X connect 76 0 162 0;
#X connect 77 0 78 0;
#X connect 77 0 79 0;
#X connect 77 0 80 0;
#X connect 77 0 45 0;
#X connect 77 0 38 0;
#X connect 78 0 27 0;
#X connect 79 0 28 0;
#X connect 80 0 29 0;
#X connect 81 0 30 0;
#X connect 82 0 30 0;
#X connect 83 0 87 0;
#X connect 84 0 88 0;
#X connect 85 0 89 0;
#X connect 86 0 90 0;
#X connect 87 0 91 0;
#X connect 88 0 91 1;
#X connect 89 0 92 1;
#X connect 90 0 93 1;
#X connect 91 0 92 0;
#X connect 92 0 93 0;
#X connect 93 0 95 0;
#X connect 94 0 95 1;
#X connect 95 0 102 0;
#X connect 96 0 104 0;
#X connect 97 0 96 0;
#X connect 98 0 99 0;
#X connect 99 0 100 0;
#X connect 100 0 98 1;
#X connect 100 0 101 0;
#X connect 101 0 108 0;
#X connect 101 1 109 0;
#X connect 102 0 103 0;
#X connect 103 0 158 1;
#X connect 104 0 106 0;
#X connect 104 0 107 0;
#X connect 104 0 98 0;
#X connect 104 0 105 0;
#X connect 104 0 169 0;
#X connect 105 0 94 0;
#X connect 106 0 83 0;
#X connect 107 0 84 0;
#X connect 108 0 86 0;
#X connect 109 0 86 0;
#X connect 110 0 61 0;
#X connect 116 0 156 0;
#X connect 117 0 123 0;
#X connect 118 0 121 0;
#X connect 119 0 117 0;
#X connect 120 0 149 0;
#X connect 121 0 152 0;
#X connect 122 0 155 0;
#X connect 123 0 127 0;
#X connect 124 0 127 1;
#X connect 125 0 128 1;
#X connect 126 0 129 1;
#X connect 127 0 128 0;
#X connect 128 0 129 0;
#X connect 129 0 131 0;
#X connect 130 0 131 1;
#X connect 131 0 143 0;
#X connect 133 0 145 0;
#X connect 134 0 133 0;
#X connect 135 0 122 0;
#X connect 136 0 122 0;
#X connect 137 0 138 0;
#X connect 138 0 139 0;
#X connect 139 0 137 1;
#X connect 139 0 140 0;
#X connect 140 0 135 0;
#X connect 140 1 136 0;
#X connect 141 0 119 0;
#X connect 142 0 120 0;
#X connect 143 0 144 0;
#X connect 144 0 132 0;
#X connect 144 0 132 1;
#X connect 145 0 141 0;
#X connect 145 0 142 0;
#X connect 145 0 118 0;
#X connect 145 0 137 0;
#X connect 145 0 146 0;
#X connect 146 0 130 0;
#X connect 148 0 157 0;
#X connect 149 0 124 0;
#X connect 150 0 151 0;
#X connect 151 0 152 1;
#X connect 152 0 125 0;
#X connect 153 0 154 0;
#X connect 154 0 155 1;
#X connect 155 0 126 0;
#X connect 156 0 117 1;
#X connect 157 0 149 1;
#X connect 158 0 159 1;
#X connect 159 0 163 0;
#X connect 161 0 163 0;
#X connect 162 0 161 0;
#X connect 163 0 164 0;
#X connect 164 0 170 0;
#X connect 164 0 170 1;
#X connect 164 0 167 0;
#X connect 164 0 167 1;
#X connect 166 0 170 0;
#X connect 166 0 167 0;
#X connect 166 1 170 1;
#X connect 166 1 167 1;
#X connect 169 0 85 0;
#X connect 171 0 170 0;
#X connect 172 0 170 0;
#X connect 173 0 171 0;
#X connect 173 0 175 0;
#X connect 174 0 71 0;
#X connect 174 0 72 0;
#X connect 174 0 49 0;
#X connect 174 0 67 0;
#X connect 174 0 110 0;
#X connect 175 0 172 0;
#X connect 176 0 170 0;
