#N canvas 827 239 734 565 12;
#X obj 903 95 mtof;
#X obj 992 286 *~;
#X obj 1005 212 vline~;
#X obj 423 193 f;
#X obj 423 235 + 1;
#X obj 423 270 % 8;
#X msg 514 370 72;
#X msg 632 370 75;
#X obj 992 123 osc~ 700;
#X msg 426 370 63;
#X obj 360 311 sel 0 1 2 3 4 5 6 7;
#X msg 352 364 60;
#X msg 715 378 79;
#X msg 389 370 62;
#X msg 467 370 67;
#X msg 567 370 74;
#X obj 379 540 r LFO;
#X obj 379 603 +;
#X obj 451 540 r note1;
#X floatatom 451 571 5 0 0 0 - - - 12;
#X obj 495 595 r toggle;
#X obj 495 621 metro 100000;
#X obj 495 658 bng 25 250 50 0 empty empty empty 0 -10 0 10 #e4e4e4 #4d4d4d #373737;
#X msg 495 709 1 300;
#X obj 459 782 line 0 3;
#X floatatom 459 812 5 0 0 0 - - - 12;
#X obj 605 729 delay 2000;
#X msg 605 763 0 700;
#X floatatom 379 639 5 0 0 0 - - - 12;
#X obj 379 664 mtof;
#X floatatom 379 694 5 0 0 0 - - - 12;
#X obj 379 719 phasor~;
#X obj 379 745 lop~ 6000;
#X obj 379 786 *~;
#X obj 379 820 *~ 0.1;
#X obj 379 853 throw~ out;
#X obj 567 515 r randomize;
#X obj 567 541 random 30000;
#X obj 567 567 + 10000;
#X floatatom 567 593 5 0 0 0 - - - 12;
#X obj 636 613 r randomize;
#X floatatom 636 691 5 0 0 0 - - - 12;
#X obj 636 639 random 3000;
#X obj 636 665 + 1000;
#X obj 772 522 r LFO;
#X obj 772 585 +;
#X floatatom 844 553 5 0 0 0 - - - 12;
#X obj 888 577 r toggle;
#X obj 888 603 metro 100000;
#X obj 888 640 bng 25 250 50 0 empty empty empty 0 -10 0 10 #e4e4e4 #4d4d4d #373737;
#X msg 888 691 1 300;
#X obj 852 764 line 0 3;
#X floatatom 852 794 5 0 0 0 - - - 12;
#X obj 998 711 delay 2000;
#X msg 998 745 0 700;
#X floatatom 772 621 5 0 0 0 - - - 12;
#X obj 772 646 mtof;
#X floatatom 772 676 5 0 0 0 - - - 12;
#X obj 772 701 phasor~;
#X obj 772 727 lop~ 6000;
#X obj 772 768 *~;
#X obj 772 802 *~ 0.1;
#X obj 772 835 throw~ out;
#X obj 960 497 r randomize;
#X obj 960 523 random 30000;
#X obj 960 549 + 10000;
#X floatatom 960 575 5 0 0 0 - - - 12;
#X obj 1029 595 r randomize;
#X floatatom 1029 673 5 0 0 0 - - - 12;
#X obj 1029 621 random 3000;
#X obj 1029 647 + 1000;
#X obj 366 957 r LFO;
#X obj 366 1020 +;
#X floatatom 438 988 5 0 0 0 - - - 12;
#X obj 482 1012 r toggle;
#X obj 482 1038 metro 100000;
#X obj 482 1075 bng 25 250 50 0 empty empty empty 0 -10 0 10 #e4e4e4 #4d4d4d #373737;
#X msg 482 1126 1 300;
#X obj 446 1199 line 0 3;
#X obj 592 1146 delay 2000;
#X msg 592 1180 0 700;
#X floatatom 366 1056 5 0 0 0 - - - 12;
#X obj 366 1081 mtof;
#X floatatom 366 1111 5 0 0 0 - - - 12;
#X obj 366 1136 phasor~;
#X obj 366 1162 lop~ 6000;
#X obj 366 1203 *~;
#X obj 554 932 r randomize;
#X obj 554 958 random 30000;
#X obj 554 984 + 10000;
#X floatatom 554 1010 5 0 0 0 - - - 12;
#X obj 623 1030 r randomize;
#X floatatom 623 1108 5 0 0 0 - - - 12;
#X obj 623 1056 random 3000;
#X obj 623 1082 + 1000;
#X obj 793 939 r LFO;
#X obj 793 1002 +;
#X floatatom 865 970 5 0 0 0 - - - 12;
#X obj 909 994 r toggle;
#X obj 909 1020 metro 100000;
#X obj 909 1057 bng 25 250 50 0 empty empty empty 0 -10 0 10 #e4e4e4 #4d4d4d #373737;
#X msg 909 1108 1 300;
#X obj 873 1181 line 0 3;
#X obj 1019 1128 delay 2000;
#X msg 1019 1162 0 700;
#X floatatom 793 1038 5 0 0 0 - - - 12;
#X obj 793 1063 mtof;
#X floatatom 793 1093 5 0 0 0 - - - 12;
#X obj 793 1118 phasor~;
#X obj 793 1144 lop~ 6000;
#X obj 793 1185 *~;
#X obj 981 914 r randomize;
#X obj 981 940 random 30000;
#X obj 981 966 + 10000;
#X floatatom 981 992 5 0 0 0 - - - 12;
#X obj 1050 1012 r randomize;
#X floatatom 1050 1090 5 0 0 0 - - - 12;
#X obj 1050 1038 random 3000;
#X obj 1050 1064 + 1000;
#X obj 1220 921 r LFO;
#X obj 1220 984 +;
#X floatatom 1292 952 5 0 0 0 - - - 12;
#X obj 1336 976 r toggle;
#X obj 1336 1002 metro 100000;
#X obj 1336 1039 bng 25 250 50 0 empty empty empty 0 -10 0 10 #e4e4e4 #4d4d4d #373737;
#X msg 1336 1090 1 300;
#X obj 1300 1163 line 0 3;
#X floatatom 1300 1193 5 0 0 0 - - - 12;
#X obj 1446 1110 delay 2000;
#X msg 1446 1144 0 700;
#X floatatom 1220 1020 5 0 0 0 - - - 12;
#X obj 1220 1045 mtof;
#X floatatom 1220 1075 5 0 0 0 - - - 12;
#X obj 1220 1100 phasor~;
#X obj 1220 1126 lop~ 6000;
#X obj 1220 1167 *~;
#X obj 1220 1201 *~ 0.1;
#X obj 1408 896 r randomize;
#X obj 1408 922 random 30000;
#X obj 1408 948 + 10000;
#X floatatom 1408 974 5 0 0 0 - - - 12;
#X obj 1477 994 r randomize;
#X floatatom 1477 1072 5 0 0 0 - - - 12;
#X obj 1477 1020 random 3000;
#X obj 1477 1046 + 1000;
#X obj 1220 497 r LFO;
#X obj 1220 560 +;
#X floatatom 1292 528 5 0 0 0 - - - 12;
#X obj 1336 552 r toggle;
#X obj 1336 578 metro 100000;
#X obj 1336 615 bng 25 250 50 0 empty empty empty 0 -10 0 10 #e4e4e4 #4d4d4d #373737;
#X msg 1336 666 1 300;
#X obj 1300 739 line 0 3;
#X floatatom 1300 769 5 0 0 0 - - - 12;
#X obj 1446 686 delay 2000;
#X msg 1446 720 0 700;
#X floatatom 1220 596 5 0 0 0 - - - 12;
#X obj 1220 621 mtof;
#X floatatom 1220 651 5 0 0 0 - - - 12;
#X obj 1220 676 phasor~;
#X obj 1220 702 lop~ 6000;
#X obj 1220 743 *~;
#X obj 1220 777 *~ 0.1;
#X obj 1220 810 throw~ out;
#X obj 1408 498 random 30000;
#X obj 1408 524 + 10000;
#X floatatom 1408 550 5 0 0 0 - - - 12;
#X obj 1477 570 r randomize;
#X floatatom 1477 648 5 0 0 0 - - - 12;
#X obj 1477 596 random 3000;
#X obj 1477 622 + 1000;
#X obj 844 522 r note2;
#X obj 1292 497 r note3;
#X obj 438 957 r note4;
#X obj 865 939 r note5;
#X obj 1292 921 r note6;
#X obj 1716 524 tgl 25 0 empty empty empty 0 -10 0 10 #e4e4e4 #4d4d4d #373737 0 1;
#X obj 1716 556 s toggle;
#X obj 1927 515 loadbang;
#X obj 1927 556 bng 25 250 50 0 empty empty empty 0 -10 0 10 #e4e4e4 #4d4d4d #373737;
#X obj 1927 588 s randomize;
#X text 1927 489 randomize;
#X text 1716 497 master toggle;
#X obj 1727 635 loadbang;
#X msg 1718 702 36;
#X msg 1775 702 55;
#X msg 1832 702 60;
#X msg 1898 702 69;
#X msg 1946 702 74;
#X msg 2007 702 75;
#X obj 1695 739 s note1;
#X obj 1775 746 s note2;
#X obj 1838 746 s note3;
#X obj 1898 746 s note4;
#X obj 1969 746 s note5;
#X obj 2037 746 s note6;
#X obj 1718 816 r toggle;
#X obj 1718 857 metro 3;
#X obj 1718 922 snapshot~;
#X obj 1787 878 osc~ 4;
#X floatatom 1718 962 5 0 0 0 - - - 12;
#X obj 1718 987 * 0.075;
#X obj 1718 1020 s LFO;
#X obj 1984 816 catch~ out;
#X obj 2077 857 hip~ 600;
#X obj 2077 883 delwrite~ delBuff 900;
#X obj 2077 915 delread~ delBuff 900;
#X obj 2077 941 *~ 0.9;
#X obj 2077 974 lop~ 4000;
#X obj 2077 1000 throw~ out;
#X obj 1963 1040 dac~;
#X obj 627 89 r toggle;
#X obj 1280 387 throw~ out;
#X obj 870 260 lop~ 6000;
#X obj 855 183 phasor~;
#X obj 1408 462 r randomize;
#X msg 1005 177 0.5 \, 0 2000 10;
#X obj 423 106 tgl 25 0 empty empty empty 0 -10 0 10 #e4e4e4 #4d4d4d #373737 0 1;
#X obj 1135 387 dac~;
#X obj 1156 299 rev3~ 100 80 3000;
#X obj 423 155 metro 500;
#X obj 1048 315 *~ 0.5;
#X obj 1917 948 *~ 1.4;
#X obj 2101 1226 writesf~ 2;
#X msg 1880 1130 start;
#X msg 1834 1242 stop;
#X obj 1779 1203 delay 60000;
#X obj 1779 1109 bng 25 250 50 0 empty empty empty 0 -10 0 10 #e4e4e4 #4d4d4d #373737;
#X msg 1787 1020 open star_wars.wav;
#X connect 0 0 214 0;
#X connect 0 0 8 0;
#X connect 1 0 221 0;
#X connect 2 0 1 1;
#X connect 3 0 4 0;
#X connect 4 0 3 1;
#X connect 4 0 5 0;
#X connect 5 0 10 0;
#X connect 6 0 0 0;
#X connect 7 0 0 0;
#X connect 9 0 0 0;
#X connect 10 0 11 0;
#X connect 10 1 13 0;
#X connect 10 2 9 0;
#X connect 10 3 14 0;
#X connect 10 4 6 0;
#X connect 10 5 15 0;
#X connect 10 6 7 0;
#X connect 10 7 12 0;
#X connect 11 0 0 0;
#X connect 16 0 17 0;
#X connect 17 0 28 0;
#X connect 18 0 19 0;
#X connect 19 0 17 1;
#X connect 20 0 21 0;
#X connect 21 0 22 0;
#X connect 22 0 23 0;
#X connect 22 0 26 0;
#X connect 23 0 24 0;
#X connect 24 0 25 0;
#X connect 25 0 33 1;
#X connect 26 0 27 0;
#X connect 27 0 24 0;
#X connect 28 0 29 0;
#X connect 29 0 30 0;
#X connect 30 0 31 0;
#X connect 31 0 32 0;
#X connect 32 0 33 0;
#X connect 33 0 34 0;
#X connect 34 0 35 0;
#X connect 36 0 37 0;
#X connect 37 0 38 0;
#X connect 38 0 39 0;
#X connect 39 0 21 1;
#X connect 40 0 42 0;
#X connect 41 0 26 1;
#X connect 42 0 43 0;
#X connect 43 0 41 0;
#X connect 44 0 45 0;
#X connect 45 0 55 0;
#X connect 46 0 45 1;
#X connect 47 0 48 0;
#X connect 48 0 49 0;
#X connect 49 0 50 0;
#X connect 49 0 53 0;
#X connect 50 0 51 0;
#X connect 51 0 52 0;
#X connect 52 0 60 1;
#X connect 53 0 54 0;
#X connect 54 0 51 0;
#X connect 55 0 56 0;
#X connect 56 0 57 0;
#X connect 57 0 58 0;
#X connect 58 0 59 0;
#X connect 59 0 60 0;
#X connect 60 0 61 0;
#X connect 61 0 62 0;
#X connect 63 0 64 0;
#X connect 64 0 65 0;
#X connect 65 0 66 0;
#X connect 66 0 48 1;
#X connect 67 0 69 0;
#X connect 68 0 53 1;
#X connect 69 0 70 0;
#X connect 70 0 68 0;
#X connect 71 0 72 0;
#X connect 72 0 81 0;
#X connect 73 0 72 1;
#X connect 74 0 75 0;
#X connect 75 0 76 0;
#X connect 76 0 77 0;
#X connect 76 0 79 0;
#X connect 77 0 78 0;
#X connect 79 0 80 0;
#X connect 80 0 78 0;
#X connect 81 0 82 0;
#X connect 82 0 83 0;
#X connect 83 0 84 0;
#X connect 84 0 85 0;
#X connect 85 0 86 0;
#X connect 87 0 88 0;
#X connect 88 0 89 0;
#X connect 89 0 90 0;
#X connect 90 0 75 1;
#X connect 91 0 93 0;
#X connect 92 0 79 1;
#X connect 93 0 94 0;
#X connect 94 0 92 0;
#X connect 95 0 96 0;
#X connect 96 0 105 0;
#X connect 97 0 96 1;
#X connect 98 0 99 0;
#X connect 99 0 100 0;
#X connect 100 0 101 0;
#X connect 100 0 103 0;
#X connect 101 0 102 0;
#X connect 103 0 104 0;
#X connect 104 0 102 0;
#X connect 105 0 106 0;
#X connect 106 0 107 0;
#X connect 107 0 108 0;
#X connect 108 0 109 0;
#X connect 109 0 110 0;
#X connect 111 0 112 0;
#X connect 112 0 113 0;
#X connect 113 0 114 0;
#X connect 114 0 99 1;
#X connect 115 0 117 0;
#X connect 116 0 103 1;
#X connect 117 0 118 0;
#X connect 118 0 116 0;
#X connect 119 0 120 0;
#X connect 120 0 130 0;
#X connect 121 0 120 1;
#X connect 122 0 123 0;
#X connect 123 0 124 0;
#X connect 124 0 125 0;
#X connect 124 0 128 0;
#X connect 125 0 126 0;
#X connect 126 0 127 0;
#X connect 127 0 135 1;
#X connect 128 0 129 0;
#X connect 129 0 126 0;
#X connect 130 0 131 0;
#X connect 131 0 132 0;
#X connect 132 0 133 0;
#X connect 133 0 134 0;
#X connect 134 0 135 0;
#X connect 135 0 136 0;
#X connect 137 0 138 0;
#X connect 138 0 139 0;
#X connect 139 0 140 0;
#X connect 140 0 123 1;
#X connect 141 0 143 0;
#X connect 142 0 128 1;
#X connect 143 0 144 0;
#X connect 144 0 142 0;
#X connect 145 0 146 0;
#X connect 146 0 156 0;
#X connect 147 0 146 1;
#X connect 148 0 149 0;
#X connect 149 0 150 0;
#X connect 150 0 151 0;
#X connect 150 0 154 0;
#X connect 151 0 152 0;
#X connect 152 0 153 0;
#X connect 153 0 161 1;
#X connect 154 0 155 0;
#X connect 155 0 152 0;
#X connect 156 0 157 0;
#X connect 157 0 158 0;
#X connect 158 0 159 0;
#X connect 159 0 160 0;
#X connect 160 0 161 0;
#X connect 161 0 162 0;
#X connect 162 0 163 0;
#X connect 164 0 165 0;
#X connect 165 0 166 0;
#X connect 166 0 149 1;
#X connect 167 0 169 0;
#X connect 168 0 154 1;
#X connect 169 0 170 0;
#X connect 170 0 168 0;
#X connect 171 0 46 0;
#X connect 172 0 147 0;
#X connect 173 0 73 0;
#X connect 174 0 97 0;
#X connect 175 0 121 0;
#X connect 176 0 177 0;
#X connect 178 0 179 0;
#X connect 179 0 180 0;
#X connect 183 0 184 0;
#X connect 183 0 185 0;
#X connect 183 0 186 0;
#X connect 183 0 188 0;
#X connect 183 0 187 0;
#X connect 183 0 189 0;
#X connect 184 0 190 0;
#X connect 185 0 191 0;
#X connect 186 0 192 0;
#X connect 187 0 193 0;
#X connect 188 0 194 0;
#X connect 189 0 195 0;
#X connect 196 0 197 0;
#X connect 197 0 198 0;
#X connect 198 0 200 0;
#X connect 199 0 198 0;
#X connect 200 0 201 0;
#X connect 201 0 202 0;
#X connect 203 0 204 0;
#X connect 203 0 222 0;
#X connect 204 0 205 0;
#X connect 206 0 207 0;
#X connect 207 0 208 0;
#X connect 208 0 209 0;
#X connect 211 0 220 0;
#X connect 213 0 1 0;
#X connect 214 0 213 0;
#X connect 215 0 165 0;
#X connect 216 0 2 0;
#X connect 217 0 220 0;
#X connect 219 0 212 0;
#X connect 220 0 3 0;
#X connect 220 0 216 0;
#X connect 221 0 219 0;
#X connect 221 0 219 1;
#X connect 222 0 210 0;
#X connect 222 0 210 1;
#X connect 222 0 223 0;
#X connect 222 0 223 1;
#X connect 224 0 223 0;
#X connect 225 0 223 0;
#X connect 226 0 225 0;
#X connect 227 0 224 0;
#X connect 227 0 226 0;
#X connect 228 0 223 0;
